<svg id="Layer_1" data-name="Layer 1" xmlns="http://www.w3.org/2000/svg" viewBox="0 0 70.22 57.93"><defs><style>.cls-1{fill:#bdcde1;}.cls-2{fill:#383837;}.cls-3{fill:#070909;}.cls-4{fill:#363431;}.cls-5{fill:#f5b819;}.cls-6{fill:#f8f8f8;}.cls-7{fill:#f69520;}.cls-8{fill:#a25048;}</style></defs><title>tracing</title><path class="cls-1" d="M35.76,55.16v.06l0,0Z"/><polygon class="cls-2" points="9.71 19.58 4.39 19.99 2.28 18.05 16.27 4.13 36.21 2.71 36.62 5.67 32.77 8.98 9.71 19.58"/><polygon class="cls-3" points="9.88 19.59 4.39 19.99 3.1 18.95 16.84 5.28 36.42 3.88 36.62 5.67 33.26 8.98 9.88 19.59"/><path class="cls-4" d="M9.88,19.59S18.69,8.45,33.12,8.93L36,14.41S19.34,13.46,13.1,25.22Z"/><ellipse class="cls-3" cx="24.28" cy="19.44" rx="12.8" ry="4.42" transform="translate(-5.93 12.02) rotate(-24.88)"/><path class="cls-1" d="M67.94,22.55V53.11S57.79,39.63,43.6,54l0,0s-11.51-13.68-25,.06V22.55s13.51-14,24.67,0C43.27,22.55,56.78,8.57,67.94,22.55Z"/><path class="cls-5" d="M45.45,23.79s9.66-9.12,21,0V49s-9.39-9.17-21,0Z"/><rect class="cls-6" x="49.7" y="26.53" width="13.49" height="2.75"/><rect class="cls-6" x="49.7" y="32.62" width="13.49" height="2.75"/><rect class="cls-6" x="49.7" y="38.71" width="13.49" height="2.75"/><path class="cls-7" d="M20.21,23.79s9.66-9.12,21,0V49s-9.39-9.17-21,0Z"/><rect class="cls-6" x="24.46" y="26.53" width="13.49" height="2.75"/><rect class="cls-6" x="24.46" y="32.62" width="13.49" height="2.75"/><rect class="cls-6" x="24.46" y="38.71" width="13.49" height="2.75"/><path class="cls-8" d="M31.92,22.81l-1,.34a.92.92,0,0,1-1.18-.57l-.31-.89a1.45,1.45,0,0,1,.43-1.56L23.49,3.58h1.39L30.66,19.8l.17,0a1.46,1.46,0,0,1,1.37,1l.3.88A.92.92,0,0,1,31.92,22.81Z"/></svg>